<svg width="22" height="21" viewBox="0 0 22 21" fill="none" xmlns="http://www.w3.org/2000/svg">
<path d="M18.7705 0.772705H3.88734C2.53212 0.772705 1.44312 1.85175 1.44312 3.15665V17.7614C1.44312 19.0914 2.53212 20.1454 3.88734 20.1454H18.7705C20.1258 20.1454 21.2148 19.0663 21.2148 17.7614V3.18174C21.2148 1.85175 20.1016 0.772705 18.7705 0.772705ZM14.4707 9.59466C14.4115 10.1973 13.9014 10.6546 13.2959 10.6479V10.6479C12.6461 10.6406 12.1151 11.1654 12.1255 11.8151C12.1503 13.3617 12.2166 14.9237 12.272 16.0278C12.3137 16.8587 11.6533 17.5607 10.8214 17.5607V17.5607C10.0258 17.5607 9.38082 16.9168 9.38082 16.1212C9.38082 14.8698 9.38082 12.9813 9.38082 11.1898C9.38082 10.7999 9.06478 10.4841 8.67493 10.4841V10.4841C8.28828 10.4841 7.97358 10.173 7.96909 9.78641L7.96115 9.10309C7.95666 8.71683 8.26854 8.40131 8.65482 8.40131V8.40131C9.0316 8.40131 9.33949 8.10057 9.34835 7.7239L9.38082 6.3436C9.38082 5.18927 9.93742 3.38249 12.3817 3.38249H13.2994C14.0088 3.38249 14.5839 3.95756 14.5839 4.66695V4.66695C14.5839 5.32146 14.0918 5.87455 13.44 5.93451C13.233 5.95356 13.0595 5.96718 12.9867 5.96718C12.7427 5.96718 12.2142 6.24121 12.1276 6.71199C12.1115 6.79967 12.1251 6.8894 12.1442 6.97647L12.1521 7.01243C12.272 7.55966 12.7567 7.94962 13.3169 7.94962V7.94962C14.0216 7.94962 14.5726 8.55739 14.5037 9.25868L14.4707 9.59466Z" fill="white"/>
<path d="M18.2618 1.40015H3.35439C1.99917 1.40015 0.910156 2.47919 0.910156 3.78409V18.3889C0.910156 19.7188 1.99917 20.7728 3.35439 20.7728H18.2618C19.617 20.7728 20.706 19.6938 20.706 18.3889V3.78409C20.706 2.47919 19.617 1.40015 18.2618 1.40015ZM13.8573 10.8857L12.0181 10.8606H11.8245C11.8245 14.0225 11.8971 17.9874 11.8971 17.9874L8.89627 18.1881C8.89627 18.1881 8.89627 14.3236 8.89627 11.1116H7.46845V8.60215L9.18667 8.57706L8.89627 6.97104C8.89627 5.81671 9.45287 4.00993 11.8971 4.00993H14.0993V6.44406C14.0993 6.44406 12.7683 6.44406 12.5021 6.44406C12.2359 6.44406 11.8729 6.56953 11.8729 7.1216V8.60215H14.1477L13.8573 10.8857Z" fill="#545456"/>
<path d="M18.2139 1.19922H3.33071C1.97549 1.19922 0.886475 2.27827 0.886475 3.58316V18.213C0.886475 19.543 1.97549 20.597 3.33071 20.597H18.2139C19.5691 20.597 20.6581 19.5179 20.6581 18.213V3.58316C20.6581 2.27827 19.5691 1.19922 18.2139 1.19922ZM13.9349 9.94029C13.8773 10.4779 13.4236 10.8855 12.883 10.8855V10.8855C12.2987 10.8855 11.825 11.359 11.825 11.9433C11.825 13.5914 11.825 15.3011 11.825 16.4752C11.825 17.2972 11.1587 17.9621 10.3367 17.9621V17.9621C9.51472 17.9621 8.84838 17.2973 8.84838 16.4753C8.84838 15.223 8.84838 13.3574 8.84838 11.5871C8.84838 11.1995 8.53417 10.8855 8.14657 10.8855V10.8855C7.75897 10.8855 7.44476 10.5713 7.44476 10.1837V9.07795C7.44476 8.69035 7.75897 8.37614 8.14657 8.37614V8.37614C8.53417 8.37614 8.84838 8.06193 8.84838 7.67433V6.77011C8.84838 5.61578 9.40499 3.80901 11.8492 3.80901H12.8343C13.5065 3.80901 14.0514 4.35391 14.0514 5.02607V5.02607C14.0514 5.69824 13.5062 6.24314 12.8341 6.24314C12.6637 6.24314 12.5232 6.24314 12.4542 6.24314C12.188 6.24314 11.825 6.36861 11.825 6.92068V7.32457C11.825 7.91919 12.307 8.40123 12.9017 8.40123V8.40123C13.5417 8.40123 14.0404 8.95625 13.9722 9.59264L13.9349 9.94029Z" fill="#FFEC01"/>
</svg>
