<svg width="21" height="20" viewBox="0 0 21 20" fill="none" xmlns="http://www.w3.org/2000/svg">
<path d="M4.42749 0L5.97473 4.06565V7.80302H7.0697V4.0404L8.28369 0.0757564H7.30774L6.4508 2.70202L5.52246 0H4.42749Z" fill="url(#paint0_linear)"/>
<path d="M5.30823 0.126262L6.26038 2.82828L6.37939 2.47474L5.52246 0H4.42749L4.4751 0.126262H5.30823Z" fill="white"/>
<path d="M7.30774 0.0756836L7.26013 0.201946H8.09326L6.87927 4.14134V7.80295H7.0697V4.04033L8.28369 0.0756836H7.30774Z" fill="#FFEC01"/>
<path d="M10.0213 1.94434C8.59308 1.94434 8.64069 3.23222 8.64069 3.23222C8.64069 3.23222 8.64069 5.98475 8.64069 6.56556C8.64069 7.14637 8.95013 7.80293 10.1403 7.80293C11.4733 7.80293 11.4971 6.69182 11.4971 6.69182C11.4971 6.69182 11.4971 3.5605 11.4971 3.28272C11.4733 3.00494 11.3305 1.94434 10.0213 1.94434ZM10.6402 6.33828C10.6402 6.33828 10.6402 6.94435 10.0689 6.94435C9.56902 6.94435 9.45 6.76758 9.45 6.33828C9.45 5.93424 9.45 3.45949 9.45 3.45949C9.45 3.45949 9.4262 2.82818 10.0213 2.82818C10.5926 2.82818 10.6402 3.30797 10.6402 3.50999C10.6402 3.71202 10.6402 6.33828 10.6402 6.33828Z" fill="url(#paint1_linear)"/>
<path d="M10.0213 1.94434C9.42626 1.94434 9.09301 2.17161 8.90259 2.42414C9.11682 2.22211 9.42626 2.04535 9.94993 2.04535C11.2829 2.04535 11.4019 3.10595 11.4019 3.38373C11.4019 3.66151 11.4019 6.79283 11.4019 6.79283C11.4019 6.79283 11.4019 7.12112 11.1639 7.42415C11.4733 7.09586 11.4971 6.66657 11.4971 6.66657C11.4971 6.66657 11.4971 3.53525 11.4971 3.25747C11.4733 3.00494 11.3305 1.94434 10.0213 1.94434Z" fill="#FFEC01"/>
<path d="M9.3548 3.58586C9.3548 3.58586 9.3548 6.03537 9.3548 6.46466C9.3548 6.8687 9.47381 7.07072 9.97369 7.07072C10.2117 7.07072 10.3546 6.96971 10.426 6.84345C10.3546 6.91921 10.2355 6.96971 10.0689 6.96971C9.56903 6.96971 9.45001 6.79295 9.45001 6.36365C9.45001 5.95961 9.45001 3.48485 9.45001 3.48485C9.45001 3.48485 9.45001 3.25758 9.56903 3.08081C9.3548 3.25758 9.3548 3.58586 9.3548 3.58586Z" fill="#FFEC01"/>
<path d="M10.4974 6.79309C10.8069 6.66683 10.8069 6.21228 10.8069 6.21228C10.8069 6.21228 10.8069 3.53552 10.8069 3.35875C10.8069 3.15673 10.7117 2.77794 10.2594 2.77794C10.069 2.77794 9.99756 2.75269 9.92615 2.87895C9.97375 2.8537 10.0452 2.87895 10.0928 2.87895C10.545 2.87895 10.5927 3.35875 10.5927 3.56077C10.5927 3.76279 10.5927 6.4143 10.5927 6.4143C10.5927 6.4143 10.5927 6.61632 10.4974 6.79309Z" fill="#797A7D"/>
<path d="M10.3784 7.6263C9.18822 7.6263 8.87878 6.96973 8.87878 6.38892C8.87878 5.80811 8.87878 3.05558 8.87878 3.05558C8.87878 3.05558 8.85497 2.52527 9.21202 2.14648C8.56933 2.50002 8.59313 3.2576 8.59313 3.2576C8.59313 3.2576 8.59313 6.01013 8.59313 6.59094C8.59313 7.17175 8.90258 7.82832 10.0928 7.82832C10.6164 7.82832 10.9259 7.65155 11.1163 7.44953C10.9497 7.55054 10.7116 7.6263 10.3784 7.6263Z" fill="#797A7D"/>
<path d="M12.4017 1.99498V7.02024C12.4017 7.02024 12.3065 7.87883 13.2586 7.87883C14.0918 7.87883 14.4488 7.24752 14.4488 7.24752V7.80307H15.4248V1.96973H14.4012V6.1364C14.4012 6.1364 14.4488 6.89398 13.7347 7.02024C13.3062 7.096 13.3062 6.48994 13.3062 6.48994V1.99498H12.4017Z" fill="url(#paint2_linear)"/>
<path d="M13.1872 2.07063V6.56558C13.1872 6.56558 13.1634 7.17164 13.6156 7.09588C13.8061 7.07063 13.9489 6.99487 14.0441 6.89386C13.9489 6.94436 13.8537 6.99487 13.7108 7.02012C13.2824 7.09588 13.2824 6.48982 13.2824 6.48982V1.99487H12.3779V2.07063H13.1872Z" fill="white"/>
<path d="M14.3299 7.32324C14.3299 7.32324 14.2584 7.44929 14.1156 7.60056C14.2108 7.52492 14.2822 7.44929 14.3299 7.37366V7.32324Z" fill="white"/>
<path d="M14.3774 1.96973V2.04549H15.3057V7.80307H15.4009V1.96973H14.3774Z" fill="white"/>
<path d="M14.2346 6.69196C14.5679 6.43943 14.5441 5.95963 14.5441 5.95963V1.96973H14.3774V6.1364C14.3774 6.16165 14.4012 6.43943 14.2346 6.69196Z" fill="#FFEC01"/>
<path d="M13.4252 7.70194C12.4731 7.70194 12.5683 6.84336 12.5683 6.84336V1.99487H12.4017V7.02012C12.4017 7.02012 12.3065 7.87871 13.2586 7.87871C13.9251 7.87871 14.2822 7.47467 14.4012 7.32315C14.187 7.49992 13.8775 7.70194 13.4252 7.70194Z" fill="#FFEC01"/>
<path d="M14.5917 7.60122V7.04565C14.5917 7.04565 14.5441 7.14667 14.425 7.24768V7.77798H15.401V7.60122H14.5917V7.60122Z" fill="#FFEC01"/>
<path d="M12.2589 13.1819C11.4972 13.1819 11.4733 13.9395 11.4733 13.9395C11.4733 13.9395 11.4495 16.1617 11.4733 16.5404C11.4972 16.9445 11.521 17.4495 12.0446 17.4748C12.7111 17.5 12.735 17.0455 12.735 17.0455V13.6869C12.7112 13.6617 12.7112 13.1819 12.2589 13.1819Z" fill="white"/>
<path d="M16.0198 13.1819C15.4485 13.1819 15.4485 13.6112 15.4485 13.6112V14.7223L16.6387 14.697L16.6149 13.6112C16.6149 13.5859 16.5911 13.1819 16.0198 13.1819Z" fill="white"/>
<path d="M18.1377 8.7373H2.30834C1.09436 8.7373 0.118408 9.72215 0.118408 10.9343V17.7019C0.118408 18.9141 1.09436 19.8989 2.30834 19.8989H18.1377C19.3517 19.8989 20.3277 18.9141 20.3277 17.7019V10.9343C20.3277 9.72215 19.3517 8.7373 18.1377 8.7373ZM6.40256 11.2626H5.06956V18.2575H4.14122V11.2626H2.87962V10.3787H6.40256V11.2626ZM9.68746 18.106H8.71151V17.5504C8.71151 17.5504 8.37826 18.1817 7.52133 18.1817C6.56918 18.1817 6.54538 17.3232 6.54538 17.3232V12.2979H7.54513V16.7929C7.54513 16.7929 7.52133 17.3989 7.9736 17.3232C8.68771 17.1969 8.6401 16.4393 8.6401 16.4393V12.2979H9.66365V18.106H9.68746ZM12.6629 18.207C12.0916 18.207 11.687 17.9797 11.4727 17.7019V18.1817H10.5206V10.4292H11.4727V12.8535C11.6394 12.6009 11.9964 12.2474 12.7105 12.2474C13.7103 12.2474 13.6151 13.7878 13.6151 13.7878V17.2474C13.5912 17.2474 13.6389 18.207 12.6629 18.207ZM17.5665 15.3535H15.4479C15.4479 15.3535 15.4479 16.111 15.4479 16.3888C15.4479 16.8434 15.4241 17.3989 15.9954 17.3989C16.6619 17.3989 16.6143 16.1868 16.6143 16.1868H17.5665C17.5665 16.7676 17.5426 18.1312 16.0668 18.1312C14.472 18.1312 14.5196 16.8434 14.5196 16.8434C14.5196 16.8434 14.5196 15.5302 14.5196 13.6615C14.5196 12.0706 16.0192 12.1969 16.0192 12.1969C17.6141 12.1969 17.5903 13.409 17.5903 13.409V15.3535H17.5665Z" fill="white"/>
<path d="M12.1636 13.2827C11.4019 13.2827 11.3781 14.0403 11.3781 14.0403C11.3781 14.0403 11.3543 16.2625 11.3781 16.6413C11.4019 17.0453 11.4257 17.5504 11.9494 17.5756C12.6159 17.6009 12.6397 17.1464 12.6397 17.1464V13.7878C12.5921 13.7625 12.5921 13.2827 12.1636 13.2827Z" fill="#FFEC01"/>
<path d="M15.9008 13.2827C15.3295 13.2827 15.3295 13.712 15.3295 13.712V14.8231L16.5197 14.7979L16.4959 13.712C16.5197 13.6868 16.4959 13.2827 15.9008 13.2827Z" fill="#FFEC01"/>
<path d="M18.0426 8.83838H2.21325C0.999266 8.83838 0.0233154 9.82323 0.0233154 11.0353V17.803C0.0233154 19.0152 0.999266 20 2.21325 20H18.0426C19.2566 20 20.2326 19.0152 20.2326 17.803V11.0353C20.2088 9.82323 19.2328 8.83838 18.0426 8.83838ZM6.30747 11.3636H4.97447V18.3586H4.04613V11.3636H2.78453V10.4798H6.30747V11.3636ZM9.59237 18.2071H8.61642V17.6515C8.61642 17.6515 8.28317 18.2828 7.42624 18.2828C6.47409 18.2828 6.45029 17.4242 6.45029 17.4242V12.399H7.45004V16.8939C7.45004 16.8939 7.42624 17.5 7.8785 17.4242C8.59261 17.298 8.54501 16.5404 8.54501 16.5404V12.3737H9.56856V18.2071H9.59237ZM12.5678 18.3081C11.9965 18.3081 11.5919 18.0808 11.3776 17.803V18.2828H10.4255V10.5303H11.3776V12.9545C11.5443 12.702 11.9013 12.3485 12.6154 12.3485C13.6152 12.3485 13.52 13.8889 13.52 13.8889V17.3485C13.4962 17.3485 13.52 18.3081 12.5678 18.3081ZM17.4714 15.4545H15.3528C15.3528 15.4545 15.3528 16.2121 15.3528 16.4899C15.3528 16.9444 15.329 17.5 15.9003 17.5C16.5668 17.5 16.5192 16.2879 16.5192 16.2879H17.4714C17.4714 16.8687 17.4476 18.2323 15.9717 18.2323C14.3769 18.2323 14.4245 16.9444 14.4245 16.9444C14.4245 16.9444 14.4245 15.6313 14.4245 13.7626C14.4245 12.1717 15.9241 12.298 15.9241 12.298C17.519 12.298 17.4952 13.5101 17.4952 13.5101V15.4545H17.4714Z" fill="#FFEC01"/>
<path d="M11.5924 16.4394C11.5924 16.0607 11.5924 13.8384 11.5924 13.8384C11.5924 13.8384 11.5924 13.5859 11.759 13.3586C11.3781 13.5607 11.3543 14.0152 11.3543 14.0152C11.3543 14.0152 11.3305 16.2374 11.3543 16.6162C11.3781 17.0203 11.4019 17.5253 11.9256 17.5506C12.3065 17.5758 12.4731 17.4243 12.5445 17.298C12.4493 17.3485 12.3303 17.3738 12.1636 17.3485C11.64 17.3485 11.5924 16.8435 11.5924 16.4394Z" fill="#797A7D"/>
<path d="M15.5676 13.51C15.5676 13.51 15.5676 13.4343 15.6152 13.3333C15.3295 13.4343 15.3295 13.712 15.3295 13.712V14.8232L16.5197 14.7979V14.5959H15.5676V13.51Z" fill="#797A7D"/>
<path d="M7.47435 16.9192C7.47435 16.9192 7.45055 17.5252 7.90281 17.4495C8.14084 17.399 8.28366 17.2979 8.37888 17.1717C8.30747 17.1969 8.23605 17.2474 8.11704 17.2474C7.68858 17.3232 7.68858 16.7171 7.68858 16.7171V12.2222H6.68884V12.4242H7.45055V16.9192H7.47435Z" fill="#797A7D"/>
<path d="M12.8301 12.1465C12.2826 12.1465 11.9494 12.3738 11.7352 12.5758C11.9256 12.4495 12.2112 12.3485 12.5921 12.3485C13.5918 12.3485 13.4966 13.8889 13.4966 13.8889V17.3485C13.4966 17.3485 13.4966 17.702 13.2824 17.9798C13.7347 17.7273 13.7347 17.1465 13.7347 17.1465V13.6869C13.7347 13.6869 13.8299 12.1465 12.8301 12.1465Z" fill="#797A7D"/>
<path d="M17.0434 17.8534C17.6861 17.4494 17.7099 16.5655 17.7099 16.1362H16.7578C16.7578 16.1362 16.7578 16.212 16.7578 16.3383H17.4719C17.4719 16.6918 17.4481 17.3989 17.0434 17.8534Z" fill="#797A7D"/>
<path d="M11.3781 12.9544C11.4257 12.8786 11.4971 12.7776 11.6161 12.6766V10.3281H10.664V10.5301H11.3781V12.9544Z" fill="#797A7D"/>
<path d="M11.3781 17.803V18.0803H11.6161V18.0299C11.5209 17.9542 11.4257 17.8786 11.3781 17.803Z" fill="#797A7D"/>
<path d="M15.3533 16.49C15.3533 16.9445 15.3295 17.5001 15.9008 17.5001C16.0912 17.5001 16.2102 17.399 16.3054 17.2728C16.2578 17.298 16.2102 17.298 16.1388 17.298C15.5437 17.298 15.5913 16.7425 15.5913 16.2879C15.5913 16.0859 15.5913 15.6819 15.5913 15.4546H15.3533C15.3533 15.4546 15.3533 16.2122 15.3533 16.49Z" fill="#797A7D"/>
<path d="M2.42797 19.798C1.21398 19.798 0.238036 18.8131 0.238036 17.601V10.8333C0.238036 10.202 0.499876 9.64647 0.904538 9.24243C0.357055 9.64647 0 10.2778 0 11.0101V17.7778C0 18.9899 0.975947 19.9747 2.18993 19.9747H18.0193C18.6144 19.9747 19.1381 19.7475 19.5428 19.3687C19.1857 19.6212 18.7334 19.798 18.2574 19.798H2.42797Z" fill="#797A7D"/>
<path d="M16.1151 12.1212C16.1151 12.1212 15.4009 12.0455 14.9487 12.5505C15.3771 12.2727 15.877 12.3232 15.877 12.3232C17.4719 12.3232 17.4481 13.5354 17.4481 13.5354V15.2778H17.6861V13.3333C17.6861 13.3333 17.7337 12.1212 16.1151 12.1212Z" fill="#797A7D"/>
<path d="M6.30798 11.1617H6.54602V10.2778H2.99927V10.4546H6.30798V11.1617Z" fill="#797A7D"/>
<path d="M5.21301 11.3635H4.97498V18.1564H5.21301V11.3635Z" fill="#797A7D"/>
<path d="M8.78357 12.399H9.5929V18.0051H9.83093V12.197H8.78357V12.399Z" fill="#797A7D"/>
<path d="M8.45032 17.8533C8.52138 17.8029 8.56875 17.7777 8.61612 17.7272V17.6516C8.61612 17.6516 8.56875 17.7524 8.45032 17.8533Z" fill="#797A7D"/>
<defs>
<linearGradient id="paint0_linear" x1="6.61529" y1="3.46174" x2="13.2865" y2="8.91545" gradientUnits="userSpaceOnUse">
<stop stop-color="#AFB1B4"/>
<stop offset="0.5576" stop-color="#EFF0F0"/>
<stop offset="0.5827" stop-color="#DBDCDC"/>
<stop offset="0.6194" stop-color="#C6C6C6"/>
<stop offset="0.6627" stop-color="#B5B5B5"/>
<stop offset="0.7162" stop-color="#AAAAAA"/>
<stop offset="0.7914" stop-color="#A3A3A3"/>
<stop offset="1" stop-color="#A1A1A1"/>
</linearGradient>
<linearGradient id="paint1_linear" x1="7.48986" y1="2.55979" x2="14.1844" y2="8.03247" gradientUnits="userSpaceOnUse">
<stop stop-color="#AFB1B4"/>
<stop offset="0.5576" stop-color="#EFF0F0"/>
<stop offset="0.5827" stop-color="#DBDCDC"/>
<stop offset="0.6194" stop-color="#C6C6C6"/>
<stop offset="0.6627" stop-color="#B5B5B5"/>
<stop offset="0.7162" stop-color="#AAAAAA"/>
<stop offset="0.7914" stop-color="#A3A3A3"/>
<stop offset="1" stop-color="#A1A1A1"/>
</linearGradient>
<linearGradient id="paint2_linear" x1="9.30296" y1="0.489521" x2="16.009" y2="5.97175" gradientUnits="userSpaceOnUse">
<stop stop-color="#AFB1B4"/>
<stop offset="0.5576" stop-color="#EFF0F0"/>
<stop offset="0.5827" stop-color="#DBDCDC"/>
<stop offset="0.6194" stop-color="#C6C6C6"/>
<stop offset="0.6627" stop-color="#B5B5B5"/>
<stop offset="0.7162" stop-color="#AAAAAA"/>
<stop offset="0.7914" stop-color="#A3A3A3"/>
<stop offset="1" stop-color="#A1A1A1"/>
</linearGradient>
</defs>
</svg>
