<svg width="448" height="273" viewBox="0 0 448 273" fill="none" xmlns="http://www.w3.org/2000/svg">
<rect y="13" width="448" height="248" fill="#D5D5D5" fill-opacity="0.75"/>
<path d="M227.864 155.368C227.864 155.368 227.919 155.324 227.864 155.368C228.086 155.057 227.808 155.19 227.864 155.368Z" fill="#CCF97D"/>
<path d="M385.896 149.584C386.512 149.361 386.008 149.584 385.896 149.584V149.584Z" fill="#CCF97D"/>
<path d="M385.896 149.584C378.672 152.61 369.936 151.853 363.888 147.492C372.4 145.445 383.6 139.349 386.12 132.184C383.32 138.637 373.24 143.532 365.512 145.579C359.688 147.092 356.16 145.846 350.896 143.977C347.984 142.82 344.456 143.309 341.656 144.422C339.248 145.356 337.232 146.869 335.16 148.16C330.288 151.186 324.856 151.453 318.864 151.008C312.368 150.518 288.232 146.157 286.384 145.89C290.808 142.953 295.12 139.883 299.936 137.302C304.808 138.948 309.904 140.55 315.336 140.105C318.36 139.883 319.424 139.215 322.224 140.239C324.464 141.04 327.208 141.841 329.728 141.485C330.904 141.396 342.16 138.147 342.16 137.48C342.16 137.391 334.152 139.482 333.48 139.616C329.616 140.55 326.424 139.838 323.064 138.147C329.84 135.477 336.952 134.409 344.232 133.163C338.072 133.564 331.464 133.519 325.528 135.032C318.192 136.812 312.816 137.613 305.704 134.543C315.896 130.36 326.76 131.962 337.624 129.915C348.488 127.912 355.544 119.68 360.416 112.204C357.168 116.031 352.968 119.324 348.936 122.661C343.392 126.399 337.232 127.334 330.064 127.111C322.84 126.889 315.784 126.221 308.672 127.467C301.448 128.758 294.784 131.517 288.568 134.587C289.968 130.315 293.216 125.198 297.808 122.528C292.32 124.931 287.784 130.36 285.824 134.988C284.424 138.37 275.632 141.351 271.656 143.22C271.992 143.487 239.736 142.108 230.048 153.233C228.312 148.382 229.096 143.042 230.776 138.236C231.224 136.901 231.784 135.611 232.4 134.32C232.904 133.297 236.656 131.917 240.632 130.671C240.688 130.671 240.744 130.671 240.856 130.671C241.304 130.627 241.864 130.627 242.48 130.627C242.816 130.627 243.096 130.627 243.488 130.627C243.824 130.627 244.216 130.671 244.608 130.671C246.176 130.716 247.968 130.938 249.872 131.205C251.776 131.517 253.848 131.962 255.864 132.496C257.88 133.03 259.896 133.697 261.688 134.365C263.536 135.032 265.216 135.744 266.616 136.367C267.344 136.679 267.96 136.99 268.52 137.257C269.08 137.524 269.584 137.747 269.976 137.969C270.76 138.37 271.208 138.592 271.208 138.592C271.208 138.592 270.816 138.325 270.088 137.836C269.752 137.569 269.248 137.302 268.744 136.99C268.24 136.634 267.624 136.278 266.952 135.922C265.664 135.121 264.096 134.276 262.36 133.386C260.624 132.496 258.664 131.65 256.704 130.849C254.688 130.093 252.672 129.381 250.656 128.847C250.096 128.713 249.592 128.58 249.032 128.446C249.368 128.357 249.648 128.313 249.928 128.224C265.384 124.53 277.536 119.902 291.872 114.295C293.328 116.253 306.712 116.609 309.848 116.743C317.352 117.054 325.248 115.942 330.064 110.913C321.608 117.633 308.728 114.562 298.816 112.026C308.448 109.445 318.584 108.866 328.664 108.466C337.568 108.11 346.752 106.953 352.296 100.767C342.16 110.112 322.952 105.796 309.4 106.597C313.768 102.147 322.168 94.626 330.512 97.296C326.592 95.5605 321.048 97.0735 317.296 98.3195C311.64 100.144 304.08 106.908 304.192 107.086C291.256 108.51 280.28 113.361 268.576 117.588C273.336 110.78 278.936 103.793 287.784 100.011C279.888 102.369 273.84 107.309 268.576 112.382C265.384 115.452 242.76 124.308 239.456 124.352C244.664 118.745 251.944 114.74 257.6 109.445C261.912 105.395 265.104 100.456 267.4 95.516C275.688 92.935 285.712 91.956 291.928 89.5975C295.176 88.3515 299.488 86.794 302.68 85.2365C307.44 82.878 320.88 76.0695 326.424 80.0745C320.488 74.512 303.408 82.344 297.136 84.124C299.88 80.3415 301.952 75.8025 306.712 73.266C311.472 70.596 317.352 69.4835 322.952 68.4155C332.92 66.591 345.632 64.989 349.888 56.445C342.552 67.2585 322.448 64.277 309.848 67.214C314.16 63.209 318.304 59.115 323.064 55.466C317.352 58.8035 312.312 62.675 307.048 66.413C302.4 69.706 298.032 71.9755 294.392 75.9805C290.64 80.0745 287.728 83.768 281.792 85.904C277.928 87.1945 273.896 87.862 269.92 88.841C270.424 87.061 270.816 85.281 271.04 83.501C271.32 81.632 272.776 81.3205 274.344 79.9855C277.816 77.093 279.944 73.355 281.232 69.5725C283.752 62.1855 285.488 41.8935 285.152 34.284C283.976 43.9405 281.064 69.172 271.376 76.1585C270.536 61.1175 259.728 51.3275 243.656 44.43C251.272 48.3015 258.664 52.7515 263.088 59.1595C268.072 66.413 268.632 75.224 266.728 83.1005C265.048 80.742 262.808 78.606 260.344 76.737C259.168 75.847 257.936 75.0015 256.648 74.2005C257.488 72.821 257.88 71.308 257.992 69.795C258.384 64.1435 255.08 58.581 251.832 53.686C254.352 59.1595 257.936 66.947 253.904 72.5095C247.184 68.5045 235.424 60.1385 240.52 52.351C235.704 57.869 241.36 66.7245 246.176 71.041C252.168 76.4255 257.824 76.559 265.608 86.883C263.816 91.956 260.96 96.673 257.208 101.212C255.416 103.393 253.232 105.351 250.824 107.175C249.256 108.332 247.688 110.379 245.84 109.089C244.44 108.11 243.04 107.086 241.64 106.063C238.896 104.016 236.32 101.924 233.856 99.6545C230.72 96.762 230.888 96.228 232.288 92.668C234.304 87.5505 237.104 82.7 240.128 77.894C240.184 78.0275 240.24 78.072 240.24 78.072C240.24 78.072 243.544 76.9595 244.384 74.779C245.28 72.5985 243.432 70.1955 243.432 70.1955C243.432 70.1955 240.128 71.308 239.288 73.4885C238.672 75.0905 239.456 76.7815 239.96 77.5825C235.592 82.611 231.504 87.8175 228.536 93.469C224.784 88.04 223.552 82.0325 223.16 75.936C222.712 69.083 223.216 60.0495 230.496 55.3325C221.144 59.827 219.408 70.774 218.904 78.606C214.368 72.3315 214.088 63.209 216.272 56.3115C212.688 63.476 211.568 73.355 215.712 80.5195C216.664 82.2105 218.736 83.5455 218.848 85.37C218.904 86.4825 219.072 87.595 219.296 88.7075C220.024 92.134 221.312 95.3825 223.104 98.5865C212.968 95.8275 206.304 89.553 205.8 80.9645C205.24 86.1265 206.864 91.155 211.008 95.2045C213.584 97.652 216.888 99.6545 220.416 101.168C223.44 102.369 225.848 102.636 227.584 104.995C229.88 107.709 232.344 110.335 234.976 112.827C237.944 115.719 238.672 115.141 235.256 117.855C228.816 122.75 224 129.514 221.088 136.145C217.84 126.978 215.88 117.588 209.832 109.267C207.872 106.73 196.112 83.857 197.568 79.6295C199.416 74.2005 201.992 69.8395 204.512 64.544C207.368 58.581 209.272 52.3065 209.776 45.8985C210.112 41.315 210.336 32.682 202.944 31.3915C210.616 33.1715 208.992 42.6055 208.04 47.2335C206.696 53.775 203.84 59.916 200.256 65.879C198.408 60.628 196.784 55.288 195.216 49.948C193.648 44.0295 195.384 37.8885 193.312 32.059C194.04 35.797 193.144 39.535 192.528 43.2285C191.912 47.4115 192.36 51.372 192.92 55.555C186.368 50.9715 183.792 44.43 182.84 37.7105C182.672 44.4745 184.128 51.461 189.784 56.801C190.848 57.78 191.912 58.759 193.2 59.6045C194.544 60.539 196.056 65.879 197.008 71.4415C194.376 75.8915 192.024 80.5195 191.072 85.4145C185.752 81.0535 180.096 77.1375 175.28 72.4205C173.32 70.507 173.936 66.1905 173.432 63.6985C172.872 60.9395 172.2 58.136 171.416 55.4215C170.352 51.5055 169.736 47.545 168.896 43.5845C167.44 37.488 163.016 34.551 156.856 30.7685C163.52 36.3755 166.544 40.0245 166.32 47.812C166.096 53.152 167.216 58.5365 167.384 63.832C164.192 60.094 161.168 56.1335 157.36 52.796C153.72 49.6365 149.24 47.1445 145.152 44.3855C150.192 48.9245 155.232 53.0185 158.816 58.4475C162.344 63.8765 165.368 69.528 169.176 74.69C160.16 73.355 154.224 69.4835 151.872 62.3635C153.216 71.3525 161.224 76.0695 171.808 78.0275C175.672 82.8335 189.672 91.422 193.144 98.186C193.648 99.165 194.208 100.1 194.824 100.99C190.736 100.812 186.592 101.212 182.56 101.702C179.48 102.058 176.904 99.61 175.336 97.474C172.088 93.2465 171.024 89.0635 164.528 87.328C172.144 90.3095 171.696 97.474 176.736 102.369C167.888 103.348 155.288 104.416 154.672 94.8485C152.936 103.215 162.12 106.152 170.968 107.086C176.12 107.62 191.8 105.084 200.256 108.154C205.52 114.74 207.816 121.86 209.496 129.514C211.12 136.946 213.472 143.754 216.272 150.963C212.856 149.628 198.968 147.047 192.472 134.276C189.56 128.535 188.328 122.305 183.344 117.321C186.816 121.905 187.376 127.156 188.72 132.273C185.472 130.983 182.952 128.357 180.992 125.999C180.6 125.509 176.96 119.502 176.68 118.745C177.352 123.907 181.048 129.959 185.864 133.43C188.16 135.077 188.944 134.721 190.12 136.723C190.96 139.393 192.808 141.974 194.88 144.199C188.552 142.464 182.224 140.728 175.952 138.77C169.568 133.697 152.264 122.706 142.8 95.0265C141.68 91.778 140.784 88.485 139.16 85.3255C138.208 83.501 137.2 81.7655 136.024 80.03C134.512 77.6715 134.344 77.8495 135.352 75.58C137.312 71.041 136.696 66.057 136.472 61.34C136.304 54.7985 134.4 47.723 127.232 43.7625C131.88 47.0555 133.616 51.995 133.672 56.801C128.52 52.796 124.264 48.168 119.28 44.074C123.984 49.147 127.848 54.754 132.944 59.649C133.84 60.4945 133.168 61.607 133.056 62.6305C132.776 66.0125 132.44 69.528 130.928 72.732C127.4 67.4365 125.104 61.518 120.176 56.8455C115.64 52.529 109.144 49.9925 104.384 45.8985C109.816 51.906 117.376 55.6885 121.016 62.764C123.984 68.549 126.168 74.5565 129.08 80.386C123.368 77.983 116.984 76.114 112.448 72.287C112.112 67.5255 111.72 62.6305 108.752 58.3585C110.6 62.141 110.6 66.146 110.264 70.1065C103.936 62.853 99.8481 55.288 87.3601 55.021C101.248 56.801 101.808 66.5465 108.64 74.2895C98.7841 74.0225 89.7121 70.151 79.8561 69.6615C85.9601 70.596 91.5041 72.732 97.2161 74.6455C99.0641 75.2685 110.6 79.14 111.888 77.36C117.544 81.8545 131.824 88.04 132.104 87.595C134.288 94.181 141.624 105.796 143.752 112.293C140.224 111.136 128.016 105.529 124.208 104.995C121.408 104.594 120.736 101.746 119.056 99.9215C115.08 95.605 109.76 91.9115 104.104 89.019C109.984 92.9795 116.312 98.364 118.664 104.327C116.536 104.105 101.696 103.971 101.136 102.681C99.1201 97.9635 93.2961 95.249 88.9841 92.0005C92.3441 95.2935 97.1041 98.275 98.6721 102.503C93.5201 101.702 88.8161 100.1 83.7761 98.987C77.9521 97.6965 71.9601 97.474 65.9681 97.385C74.5921 98.186 82.1521 99.8325 90.0481 102.681C86.9121 103.17 82.7681 104.594 79.2961 106.374C75.7121 108.243 70.7281 114.829 65.9681 114.34C70.5601 115.363 76.9441 109.311 80.8081 107.798C83.7761 106.686 96.9361 104.906 96.8241 104.728C108.696 107.531 121.8 107.754 132.888 112.471C138.208 114.74 141.904 118.656 145.992 122.127C150.136 125.643 154.28 129.158 158.256 132.763C151.984 131.205 145.656 131.072 139.272 132.184C136.584 132.674 124.096 135.922 123.872 136.234C123.872 136.011 111.104 134.098 110.264 133.831C109.368 133.519 96.8801 127.467 91.1681 129.959C95.7601 130.271 99.6801 130.671 103.432 132.674C108.192 135.166 112.392 137.302 117.992 138.414C109.648 141.129 101.92 141.574 93.0161 140.995C84.6161 140.417 76.2721 139.66 67.9281 140.817C84.7281 139.438 100.632 145.623 117.264 141.574C126.336 139.349 135.24 136.011 144.928 135.833C149.296 135.744 153.496 136.59 157.472 137.969C160.608 139.037 180.656 147.181 183.008 147.982C178.192 149.005 173.6 150.474 168.84 151.631C166.656 152.209 163.856 152.877 161.896 151.809C157.528 149.406 154.448 146.424 149.408 144.778C145.376 143.487 141.176 142.953 136.864 142.686C145.712 144.199 151.76 147.225 157.752 152.565C155.904 152.476 138.096 150.563 133.896 150.474C128.016 150.296 122.192 150.429 116.368 150.696C124.88 151.23 133.28 152.031 141.568 153.678C132.664 158.795 122.92 165.871 111.776 159.329C118.048 164.091 127.176 164.002 134.624 161.065C138.208 159.641 141.4 157.638 144.984 156.259C150.024 154.345 155.68 156.882 161.056 157.282C168.952 157.861 176.288 155.947 184.016 155.057C191.744 154.167 205.688 156.481 205.576 155.903C210.84 157.994 214.984 167.695 214.704 172.368C213.752 186.252 216.608 202.094 214.872 211.706C212.52 224.477 214.928 244.502 210.392 257.452C214.872 260.656 232.848 261.19 238.896 258.119C238.504 244.146 233.016 230.752 232.848 216.823C232.624 202.005 231.112 173.124 231.952 173.391C236.264 163.601 238.56 152.699 253.68 151.008C267.96 149.361 281.008 150.963 295.064 152.476C297.64 155.547 302.288 158.662 304.696 159.774C306.936 160.798 312.872 162.266 315.504 162.311C322.896 162.355 330.288 160.664 331.856 162.845C333.424 165.07 335.44 167.117 338.016 168.674C341.824 170.899 346.36 171.745 350.952 170.899C343.448 171.478 337.288 167.517 334.6 162.133C337.96 163.201 340.928 164.981 344.68 165.203C351.12 165.604 355.32 161.777 361.032 160.264C355.376 161.109 350.224 164.758 344.232 163.201C341.208 162.4 338.856 160.531 336.112 159.329C332.472 157.727 329.672 158.35 325.864 158.929C319.928 160.086 310.184 158.083 306.32 153.811C315.392 155.324 327.712 156.793 335.72 152.12C338.576 150.474 340.816 148.071 343.952 146.78C349.776 144.244 360.696 148.56 360.528 148.694C367.976 154.167 379.456 154.256 387.408 149.361C386.624 149.272 386.288 149.45 385.896 149.584ZM227.864 155.369C227.808 155.191 228.088 155.057 227.864 155.369V155.369Z" fill="#FCFCFC"/>
<path d="M176.288 118.611C176.288 118.567 176.288 118.567 176.288 118.522C176.232 118.522 176.232 118.522 176.288 118.611Z" fill="#CCF97D"/>
<path d="M227.864 155.369C227.917 155.324 227.864 155.369 227.864 155.369V155.369Z" fill="white"/>
<path d="M102.816 158.306C99.8481 159.329 98.6721 162.355 98.6721 162.355C98.6721 162.355 102.256 163.734 105.224 162.711C108.192 161.687 109.368 158.662 109.368 158.662C109.368 158.662 105.784 157.282 102.816 158.306Z" fill="#CCF97D"/>
<path d="M103.656 149.005C103.656 149.005 102.312 151.986 103.936 154.212C105.56 156.437 109.48 157.015 109.48 157.015C109.48 157.015 110.824 154.033 109.2 151.808C107.576 149.628 103.656 149.005 103.656 149.005Z" fill="#CCF97D"/>
<path d="M153.328 90.5765C153.328 90.5765 156.296 91.7335 158.76 90.888C161.224 90.0425 162.176 87.5505 162.176 87.5505C162.176 87.5505 159.208 86.3935 156.744 87.239C154.336 88.0845 153.328 90.5765 153.328 90.5765Z" fill="#CCF97D"/>
<path d="M162.232 86.171C162.232 86.171 163.352 83.679 162.008 81.8545C160.664 80.03 157.416 79.5405 157.416 79.5405C157.416 79.5405 156.296 82.0325 157.64 83.857C158.984 85.6815 162.232 86.171 162.232 86.171Z" fill="#CCF97D"/>
<path d="M217.392 45.8985C217.392 45.8985 214.872 47.5895 214.816 49.7255C214.76 51.8615 217.28 53.597 217.28 53.597C217.28 53.597 219.8 51.906 219.856 49.77C219.856 47.634 217.392 45.8985 217.392 45.8985Z" fill="#CCF97D"/>
<path d="M218.792 54.131C218.792 54.131 221.2 55.9555 223.832 55.733C226.464 55.5105 228.368 53.3745 228.368 53.3745C228.368 53.3745 225.96 51.55 223.328 51.7725C220.696 51.995 218.792 54.131 218.792 54.131Z" fill="#CCF97D"/>
<path d="M323.456 54.5315C323.456 54.5315 325.976 52.8405 326.032 50.7045C326.088 48.5685 323.568 46.833 323.568 46.833C323.568 46.833 321.048 48.524 320.992 50.66C320.992 52.796 323.456 54.5315 323.456 54.5315Z" fill="#CCF97D"/>
<path d="M324.968 55.1545C324.968 55.1545 327.376 56.979 330.008 56.7565C332.64 56.534 334.544 54.398 334.544 54.398C334.544 54.398 332.136 52.5735 329.504 52.796C326.872 52.974 324.968 55.1545 324.968 55.1545Z" fill="#CCF97D"/>
<path d="M294.84 96.4505C296.688 94.359 295.736 91.333 295.736 91.333C295.736 91.333 291.76 91.6445 289.912 93.6915C288.064 95.783 289.016 98.809 289.016 98.809C289.016 98.809 292.992 98.4975 294.84 96.4505Z" fill="#CCF97D"/>
<path d="M293.608 104.55C296.408 105.796 300.104 104.728 300.104 104.728C300.104 104.728 299.32 101.657 296.52 100.411C293.72 99.165 290.024 100.233 290.024 100.233C290.024 100.233 290.808 103.304 293.608 104.55Z" fill="#CCF97D"/>
<path d="M393.512 145.89C395.36 143.843 394.408 140.772 394.408 140.772C394.408 140.772 390.432 141.084 388.584 143.131C386.736 145.223 387.688 148.249 387.688 148.249C387.688 148.249 391.664 147.937 393.512 145.89Z" fill="#CCF97D"/>
<path d="M395.192 149.806C392.392 148.56 388.696 149.628 388.696 149.628C388.696 149.628 389.48 152.699 392.28 153.945C395.08 155.191 398.776 154.123 398.776 154.123C398.776 154.123 397.992 151.052 395.192 149.806Z" fill="#CCF97D"/>
<path d="M147.56 31.347C151.088 32.0145 154.672 29.923 154.672 29.923C154.672 29.923 152.6 26.7635 149.128 26.096C145.6 25.4285 142.016 27.52 142.016 27.52C142.016 27.52 144.032 30.6795 147.56 31.347Z" fill="#CCF97D"/>
<path d="M160.328 23.693C160.776 20.845 157.808 18.2195 157.808 18.2195C157.808 18.2195 154.056 20.1775 153.608 23.0255C153.16 25.8735 156.128 28.499 156.128 28.499C156.128 28.499 159.88 26.541 160.328 23.693Z" fill="#CCF97D"/>
<path d="M294.112 37.221C290.64 37.933 288.624 41.137 288.624 41.137C288.624 41.137 292.32 43.184 295.792 42.472C299.264 41.76 301.28 38.556 301.28 38.556C301.28 38.556 297.64 36.509 294.112 37.221Z" fill="#CCF97D"/>
<path d="M294 44.6525C291.424 43.807 288.344 45.053 288.344 45.053C288.344 45.053 289.464 47.634 292.04 48.4795C294.616 49.325 297.696 48.079 297.696 48.079C297.696 48.079 296.576 45.498 294 44.6525Z" fill="#CCF97D"/>
<path d="M287.448 48.4795C287.448 48.4795 285.992 51.817 287.784 54.309C289.576 56.801 294 57.4685 294 57.4685C294 57.4685 295.456 54.131 293.664 51.639C291.872 49.147 287.448 48.4795 287.448 48.4795Z" fill="#CCF97D"/>
<path d="M113.12 88.04C112.448 89.82 113.96 91.778 113.96 91.778C113.96 91.778 116.648 90.8435 117.32 89.0635C117.992 87.2835 116.48 85.3255 116.48 85.3255C116.48 85.3255 113.792 86.26 113.12 88.04Z" fill="#CCF97D"/>
<path d="M119.392 89.1525C116.928 90.5765 116.648 93.558 116.648 93.558C116.648 93.558 120.344 94.2255 122.752 92.8015C125.216 91.3775 125.496 88.396 125.496 88.396C125.496 88.396 121.8 87.684 119.392 89.1525Z" fill="#CCF97D"/>
<path d="M118.944 95.694C118.944 95.694 120.288 96.9845 121.968 97.029C123.648 97.0735 125.048 95.8275 125.048 95.8275C125.048 95.8275 123.704 94.537 122.024 94.4925C120.344 94.4925 118.944 95.694 118.944 95.694Z" fill="#CCF97D"/>
<path d="M276.192 44.786C274.12 45.765 273.56 48.079 273.56 48.079C273.56 48.079 276.416 48.88 278.488 47.901C280.56 46.922 281.12 44.608 281.12 44.608C281.12 44.608 278.32 43.807 276.192 44.786Z" fill="#CCF97D"/>
<path d="M274.68 43.5845C277.76 43.8515 280.616 41.76 280.616 41.76C280.616 41.76 278.432 39.2235 275.352 38.912C272.272 38.645 269.416 40.7365 269.416 40.7365C269.416 40.7365 271.6 43.3175 274.68 43.5845Z" fill="#CCF97D"/>
<path d="M280.84 38.912C280.84 38.912 280.952 37.221 279.72 36.242C278.488 35.263 276.36 35.441 276.36 35.441C276.36 35.441 276.248 37.132 277.48 38.111C278.712 39.0455 280.84 38.912 280.84 38.912Z" fill="#CCF97D"/>
<path d="M332.976 77.4045C335.384 77.1375 337.008 75.135 337.008 75.135C337.008 75.135 334.768 73.533 332.36 73.8C329.952 74.067 328.328 76.0695 328.328 76.0695C328.328 76.0695 330.568 77.6715 332.976 77.4045Z" fill="#CCF97D"/>
<path d="M331.016 83.0115C333.76 84.213 337.4 83.1005 337.4 83.1005C337.4 83.1005 336.616 80.0745 333.872 78.9175C331.128 77.716 327.488 78.8285 327.488 78.8285C327.488 78.8285 328.272 81.81 331.016 83.0115Z" fill="#CCF97D"/>
<path d="M325.864 81.454C325.864 81.454 324.912 83.0115 325.64 84.2575C326.312 85.5035 328.384 86.0375 328.384 86.0375C328.384 86.0375 329.336 84.48 328.608 83.234C327.936 81.9435 325.864 81.454 325.864 81.454Z" fill="#CCF97D"/>
<path d="M104.44 126.399C104.776 128.757 107.856 130.448 107.856 130.448C107.856 130.448 110.376 128.268 110.096 125.909C109.76 123.551 106.68 121.86 106.68 121.86C106.68 121.86 104.104 124.041 104.44 126.399Z" fill="#CCF97D"/>
<path d="M112.504 125.153C110.544 127.823 112.112 131.427 112.112 131.427C112.112 131.427 116.872 130.715 118.776 128.09C120.736 125.42 119.168 121.815 119.168 121.815C119.168 121.815 114.464 122.483 112.504 125.153Z" fill="#CCF97D"/>
<path d="M116.144 133.074C116.144 133.074 118.496 134.053 120.512 133.43C122.528 132.807 123.368 130.805 123.368 130.805C123.368 130.805 121.016 129.825 119 130.448C116.984 131.071 116.144 133.074 116.144 133.074Z" fill="#CCF97D"/>
<path d="M341.488 117.277C341.488 117.277 340.648 114.384 338.016 113.271C335.384 112.159 331.912 113.227 331.912 113.227C331.912 113.227 332.752 116.12 335.384 117.232C338.016 118.345 341.488 117.277 341.488 117.277Z" fill="#CCF97D"/>
<path d="M328.496 115.452C328.496 115.452 326.536 118.967 328.216 121.726C329.896 124.485 334.544 125.509 334.544 125.509C334.544 125.509 336.504 121.993 334.824 119.234C333.088 116.475 328.496 115.452 328.496 115.452Z" fill="#CCF97D"/>
<path d="M321.664 119.857C321.216 121.504 322.784 123.239 322.784 123.239C322.784 123.239 325.136 122.216 325.584 120.569C326.032 118.878 324.464 117.188 324.464 117.188C324.464 117.188 322.112 118.166 321.664 119.857Z" fill="#CCF97D"/>
<path d="M100.464 84.3465C100.464 84.3465 102.648 81.9435 101.92 79.6295C101.192 77.3155 97.888 75.9805 97.888 75.9805C97.888 75.9805 95.704 78.3835 96.432 80.6975C97.16 82.967 100.464 84.3465 100.464 84.3465Z" fill="#CCF97D"/>
<path d="M88.0881 85.726C88.0881 85.726 92.6801 84.5245 94.1361 81.6765C95.6481 78.8285 93.4641 75.402 93.4641 75.402C93.4641 75.402 88.8721 76.6035 87.4161 79.4515C85.9601 82.2995 88.0881 85.726 88.0881 85.726Z" fill="#CCF97D"/>
<path d="M84.8401 74.334C82.9921 75.1795 82.4321 77.271 82.4321 77.271C82.4321 77.271 84.9521 77.983 86.8001 77.1375C88.7041 76.292 89.2081 74.2005 89.2081 74.2005C89.2081 74.2005 86.7441 73.4885 84.8401 74.334Z" fill="#CCF97D"/>
<path d="M301.616 62.497C304.472 63.2535 307.664 61.7405 307.664 61.7405C307.664 61.7405 306.264 58.9815 303.408 58.225C300.552 57.4685 297.36 58.9815 297.36 58.9815C297.36 58.9815 298.76 61.7405 301.616 62.497Z" fill="#CCF97D"/>
<path d="M310.576 59.0705C310.576 59.0705 311.752 55.377 309.512 52.8405C307.272 50.304 302.512 49.948 302.512 49.948C302.512 49.948 301.336 53.6415 303.576 56.178C305.76 58.67 310.576 59.0705 310.576 59.0705Z" fill="#CCF97D"/>
<path d="M314.104 56.8455C314.104 56.8455 316.232 55.555 316.344 53.8195C316.456 52.1285 314.552 50.66 314.552 50.66C314.552 50.66 312.424 51.9505 312.312 53.686C312.2 55.377 314.104 56.8455 314.104 56.8455Z" fill="#CCF97D"/>
<path d="M250.824 39.179C251.272 36.331 248.304 33.7055 248.304 33.7055C248.304 33.7055 244.552 35.6635 244.104 38.5115C243.656 41.3595 246.624 43.985 246.624 43.985C246.624 43.985 250.376 42.027 250.824 39.179Z" fill="#CCF97D"/>
<path d="M256.536 44.2075C258.44 42.6055 258.104 39.891 258.104 39.891C258.104 39.891 254.632 39.7575 252.728 41.3595C250.824 42.9615 251.16 45.676 251.16 45.676C251.16 45.676 254.632 45.8095 256.536 44.2075Z" fill="#CCF97D"/>
<path d="M254.8 47.5895C254.8 47.5895 258.16 49.9035 261.744 49.503C265.328 49.1025 267.736 46.0765 267.736 46.0765C267.736 46.0765 264.376 43.7625 260.792 44.163C257.208 44.5635 254.8 47.5895 254.8 47.5895Z" fill="#CCF97D"/>
<path d="M109.536 108.643C109.536 108.643 106.96 111.536 107.8 114.34C108.64 117.099 112.672 118.745 112.672 118.745C112.672 118.745 115.248 115.853 114.408 113.049C113.512 110.246 109.536 108.643 109.536 108.643Z" fill="#CCF97D"/>
<path d="M100.184 111.269C99.1201 113.316 100.688 115.764 100.688 115.764C100.688 115.764 103.992 114.918 105.056 112.871C106.12 110.824 104.552 108.376 104.552 108.376C104.552 108.376 101.248 109.222 100.184 111.269Z" fill="#CCF97D"/>
<path d="M92.9041 107.843C89.7681 109.267 88.8721 112.738 88.8721 112.738C88.8721 112.738 93.0721 113.939 96.2081 112.515C99.3441 111.091 100.24 107.62 100.24 107.62C100.24 107.62 96.0401 106.419 92.9041 107.843Z" fill="white"/>
<path d="M370.328 121.504C370.328 121.504 368.312 118.344 364.784 117.632C361.256 116.965 357.616 119.012 357.616 119.012C357.616 119.012 359.632 122.171 363.16 122.883C366.688 123.595 370.328 121.504 370.328 121.504Z" fill="#CCF97D"/>
<path d="M361.48 128.579C361.48 128.579 362.04 125.865 360.304 124.174C358.512 122.483 355.096 122.439 355.096 122.439C355.096 122.439 354.536 125.153 356.272 126.844C358.008 128.535 361.48 128.579 361.48 128.579Z" fill="#CCF97D"/>
<path d="M352.184 125.109C352.184 125.109 348.88 127.512 348.992 130.359C349.104 133.207 352.576 135.477 352.576 135.477C352.576 135.477 355.88 133.074 355.768 130.226C355.712 127.333 352.184 125.109 352.184 125.109Z" fill="#CCF97D"/>
<path d="M355.992 63.7875C359.184 65.1225 363.328 63.8765 363.328 63.8765C363.328 63.8765 362.376 60.4055 359.184 59.0705C355.992 57.7355 351.848 58.9815 351.848 58.9815C351.848 58.9815 352.856 62.408 355.992 63.7875Z" fill="#CCF97D"/>
<path d="M348.264 61.7405C348.264 61.7405 346.864 64.2325 348.04 66.235C349.216 68.2375 352.576 68.9495 352.576 68.9495C352.576 68.9495 353.976 66.4575 352.8 64.455C351.624 62.4525 348.264 61.7405 348.264 61.7405Z" fill="#CCF97D"/>
<path d="M346.584 69.3945C347.368 66.591 344.736 63.743 344.736 63.743C344.736 63.743 340.76 65.434 339.976 68.193C339.192 70.9965 341.824 73.8445 341.824 73.8445C341.824 73.8445 345.8 72.198 346.584 69.3945Z" fill="#CCF97D"/>
<path d="M210.504 25.0725C212.296 22.5805 210.84 19.243 210.84 19.243C210.84 19.243 206.416 19.9105 204.624 22.358C202.832 24.85 204.288 28.1875 204.288 28.1875C204.288 28.1875 208.712 27.5645 210.504 25.0725Z" fill="#CCF97D"/>
<path d="M207.704 31.169C207.704 31.169 210.784 32.3705 213.36 31.4805C215.936 30.5905 216.944 28.0095 216.944 28.0095C216.944 28.0095 213.864 26.808 211.288 27.698C208.712 28.5435 207.704 31.169 207.704 31.169Z" fill="#CCF97D"/>
<path d="M210.112 34.0615C210.112 34.0615 212.072 37.2655 215.544 37.9775C219.016 38.6895 222.712 36.687 222.712 36.687C222.712 36.687 220.752 33.483 217.28 32.771C213.808 32.059 210.112 34.0615 210.112 34.0615Z" fill="#CCF97D"/>
<path d="M169.792 84.213C168.616 85.815 169.568 87.9955 169.568 87.9955C169.568 87.9955 172.424 87.5505 173.6 85.9485C174.776 84.3465 173.824 82.166 173.824 82.166C173.824 82.166 170.968 82.611 169.792 84.213Z" fill="#CCF97D"/>
<path d="M174.048 87.6395C172.368 88.218 171.696 89.909 171.696 89.909C171.696 89.909 173.712 90.71 175.392 90.1315C177.072 89.553 177.744 87.862 177.744 87.862C177.744 87.862 175.728 87.061 174.048 87.6395Z" fill="#CCF97D"/>
<path d="M177.968 90.9325C175.728 90.443 173.32 91.778 173.32 91.778C173.32 91.778 174.608 93.8695 176.848 94.3145C179.088 94.804 181.496 93.469 181.496 93.469C181.496 93.469 180.208 91.422 177.968 90.9325Z" fill="white"/>
<path d="M180.6 99.2985C182.84 99.788 185.248 98.453 185.248 98.453C185.248 98.453 183.96 96.3615 181.72 95.9165C179.48 95.427 177.072 96.762 177.072 96.762C177.072 96.762 178.36 98.8535 180.6 99.2985Z" fill="#CCF97D"/>
<path d="M245.168 133.563C242.144 134.943 241.304 138.28 241.304 138.28C241.304 138.28 245.392 139.437 248.416 138.102C251.44 136.767 252.28 133.385 252.28 133.385C252.28 133.385 248.192 132.228 245.168 133.563Z" fill="#CCF97D"/>
<path d="M256.144 137.835C256.368 135.833 254.24 134.053 254.24 134.053C254.24 134.053 251.664 135.477 251.44 137.48C251.216 139.482 253.344 141.262 253.344 141.262C253.344 141.262 255.864 139.838 256.144 137.835Z" fill="#CCF97D"/>
<path d="M233.52 40.781C236.32 42.6055 240.688 42.027 240.688 42.027C240.688 42.027 240.576 38.467 237.832 36.6425C235.032 34.818 230.664 35.3965 230.664 35.3965C230.664 35.3965 230.72 38.9565 233.52 40.781Z" fill="#CCF97D"/>
<path d="M240.632 43.7625C240.632 43.7625 237.944 42.3385 235.424 42.8725C232.904 43.4065 231.504 45.765 231.504 45.765C231.504 45.765 234.192 47.189 236.712 46.655C239.232 46.0765 240.632 43.7625 240.632 43.7625Z" fill="#CCF97D"/>
<path d="M289.744 27.2085C290.192 24.3605 287.224 21.735 287.224 21.735C287.224 21.735 283.472 23.693 283.024 26.541C282.576 29.389 285.544 32.0145 285.544 32.0145C285.544 32.0145 289.296 30.0565 289.744 27.2085Z" fill="#CCF97D"/>
<path d="M295.064 33.661C298.144 32.1925 298.928 28.677 298.928 28.677C298.928 28.677 294.672 27.5645 291.592 28.9885C288.512 30.457 287.728 33.9725 287.728 33.9725C287.728 33.9725 291.928 35.1295 295.064 33.661Z" fill="#CCF97D"/>
<path d="M283.696 32.9045C283.696 32.9045 283.808 30.3235 281.848 28.944C279.888 27.5645 276.696 27.876 276.696 27.876C276.696 27.876 276.584 30.457 278.544 31.8365C280.448 33.216 283.696 32.9045 283.696 32.9045Z" fill="#CCF97D"/>
<path d="M143.864 44.0295C143.864 44.0295 144.592 41.226 142.856 39.4015C141.12 37.577 137.536 37.399 137.536 37.399C137.536 37.399 136.808 40.2025 138.544 42.027C140.28 43.8515 143.864 44.0295 143.864 44.0295Z" fill="#CCF97D"/>
<path d="M145.208 39.6685C144.48 41.8935 146.496 44.252 146.496 44.252C146.496 44.252 149.744 43.006 150.472 40.781C151.2 38.556 149.184 36.1975 149.184 36.1975C149.184 36.1975 145.936 37.4435 145.208 39.6685Z" fill="#CCF97D"/>
<path d="M139.664 47.1C141.736 47.0555 143.416 45.409 143.416 45.409C143.416 45.409 141.624 43.896 139.552 43.9405C137.48 43.985 135.8 45.6315 135.8 45.6315C135.8 45.6315 137.592 47.1445 139.664 47.1Z" fill="#CCF97D"/>
<path d="M77.504 55.911C80.92 56.89 84.784 55.11 84.784 55.11C84.784 55.11 83.16 51.7725 79.8 50.838C76.384 49.859 72.52 51.639 72.52 51.639C72.52 51.639 74.144 54.932 77.504 55.911Z" fill="#CCF97D"/>
<path d="M87.696 53.864C87.696 53.864 89.992 50.7935 88.872 48.079C87.752 45.3645 83.608 43.985 83.608 43.985C83.608 43.985 81.312 47.0555 82.432 49.77C83.552 52.529 87.696 53.864 87.696 53.864Z" fill="#CCF97D"/>
<path d="M80.1921 57.335C78.0641 58.5365 77.7281 61.1175 77.7281 61.1175C77.7281 61.1175 80.8641 61.7405 82.9921 60.539C85.1201 59.3375 85.4561 56.7565 85.4561 56.7565C85.4561 56.7565 82.3201 56.1335 80.1921 57.335Z" fill="#CCF97D"/>
<path d="M57.568 117.454C54.88 119.368 54.936 122.928 54.936 122.928C54.936 122.928 59.36 123.373 62.048 121.46C64.736 119.546 64.68 115.986 64.68 115.986C64.68 115.986 60.256 115.541 57.568 117.454Z" fill="#CCF97D"/>
<path d="M58.912 109.8C55.384 109.311 51.912 111.536 51.912 111.536C51.912 111.536 54.208 114.606 57.736 115.096C61.264 115.585 64.736 113.36 64.736 113.36C64.736 113.36 62.496 110.29 58.912 109.8Z" fill="#CCF97D"/>
<path d="M69.888 119.813C69.552 117.766 66.864 116.298 66.864 116.298C66.864 116.298 64.68 118.211 64.96 120.258C65.296 122.305 67.984 123.773 67.984 123.773C67.984 123.773 70.168 121.86 69.888 119.813Z" fill="#CCF97D"/>
<path d="M394.464 126.977C396.536 124.619 395.416 121.192 395.416 121.192C395.416 121.192 390.936 121.548 388.92 123.907C386.848 126.265 387.968 129.692 387.968 129.692C387.968 129.692 392.392 129.291 394.464 126.977Z" fill="#CCF97D"/>
<path d="M395.024 129.247C391.44 129.381 388.696 132.228 388.696 132.228C388.696 132.228 391.776 134.809 395.416 134.631C399 134.498 401.744 131.65 401.744 131.65C401.744 131.65 398.608 129.114 395.024 129.247Z" fill="#CCF97D"/>
<path d="M385.784 129.736C385.784 129.736 387.352 127.467 386.456 125.509C385.56 123.551 382.536 122.661 382.536 122.661C382.536 122.661 380.968 124.93 381.864 126.888C382.704 128.846 385.784 129.736 385.784 129.736Z" fill="#CCF97D"/>
<path d="M356.272 48.9245C357.392 46.21 355.04 43.1395 355.04 43.1395C355.04 43.1395 350.896 44.519 349.832 47.2335C348.712 49.948 351.064 53.0185 351.064 53.0185C351.064 53.0185 355.208 51.6835 356.272 48.9245Z" fill="#CCF97D"/>
<path d="M352.688 55.3325C352.688 55.3325 356.608 57.068 359.968 56.089C363.328 55.11 364.952 51.7725 364.952 51.7725C364.952 51.7725 361.032 50.037 357.672 51.016C354.256 51.995 352.688 55.3325 352.688 55.3325Z" fill="#CCF97D"/>
<path d="M348.992 53.6415C348.992 53.6415 349.664 51.105 348.096 49.4585C346.528 47.812 343.28 47.634 343.28 47.634C343.28 47.634 342.608 50.1705 344.176 51.817C345.744 53.4635 348.992 53.6415 348.992 53.6415Z" fill="#CCF97D"/>
<path d="M241.416 79.8075C241.416 79.8075 244.552 81.187 247.24 80.386C249.928 79.585 251.216 76.9595 251.216 76.9595C251.216 76.9595 248.08 75.58 245.392 76.381C242.648 77.182 241.416 79.8075 241.416 79.8075Z" fill="#CCF97D"/>
<path d="M234.64 77.0485C235.872 78.3835 238.504 78.517 238.504 78.517C238.504 78.517 239.064 76.5145 237.776 75.1795C236.544 73.8445 233.912 73.711 233.912 73.711C233.912 73.711 233.352 75.7135 234.64 77.0485Z" fill="#CCF97D"/>
<path d="M202.608 29.389C202.608 29.389 202.72 26.808 200.76 25.4285C198.8 24.049 195.608 24.3605 195.608 24.3605C195.608 24.3605 195.496 26.9415 197.456 28.321C199.416 29.7005 202.608 29.389 202.608 29.389Z" fill="#CCF97D"/>
<path d="M187.32 30.19C187.768 27.342 184.8 24.7165 184.8 24.7165C184.8 24.7165 181.048 26.6745 180.6 29.5225C180.152 32.3705 183.12 34.996 183.12 34.996C183.12 34.996 186.872 33.038 187.32 30.19Z" fill="#CCF97D"/>
<path d="M181.272 35.886C181.272 35.886 181.384 33.305 179.424 31.9255C177.464 30.546 174.272 30.8575 174.272 30.8575C174.272 30.8575 174.16 33.4385 176.12 34.818C178.024 36.1975 181.272 35.886 181.272 35.886Z" fill="#CCF97D"/>
<path d="M337.176 96.139C339.472 95.16 340.256 92.668 340.256 92.668C340.256 92.668 337.232 91.7335 334.936 92.668C332.64 93.647 331.856 96.139 331.856 96.139C331.856 96.139 334.824 97.0735 337.176 96.139Z" fill="#CCF97D"/>
<path d="M361.76 112.025C361.76 112.025 365.624 113.806 369.04 112.827C372.456 111.848 374.08 108.555 374.08 108.555C374.08 108.555 370.216 106.774 366.8 107.753C363.384 108.732 361.76 112.025 361.76 112.025Z" fill="#CCF97D"/>
<path d="M363.552 108.02C364.224 106.018 362.432 103.882 362.432 103.882C362.432 103.882 359.52 104.994 358.792 106.997C358.12 108.999 359.912 111.135 359.912 111.135C359.912 111.135 362.824 110.023 363.552 108.02Z" fill="#CCF97D"/>
<path d="M368.032 155.725C364.616 156.704 362.992 159.997 362.992 159.997C362.992 159.997 366.856 161.776 370.272 160.797C373.688 159.819 375.312 156.526 375.312 156.526C375.312 156.526 371.448 154.746 368.032 155.725Z" fill="#CCF97D"/>
<path d="M364.784 155.947C365.456 153.944 363.664 151.808 363.664 151.808C363.664 151.808 360.752 152.921 360.024 154.923C359.352 156.926 361.144 159.062 361.144 159.062C361.144 159.062 364.112 157.949 364.784 155.947Z" fill="#CCF97D"/>
<path d="M82.88 119.323C82.88 119.323 81.648 122.75 83.608 125.153C85.568 127.556 90.048 128.001 90.048 128.001C90.048 128.001 91.28 124.575 89.32 122.172C87.304 119.813 82.88 119.323 82.88 119.323Z" fill="#CCF97D"/>
<path d="M79.856 129.425C79.856 129.425 81.928 131.427 84.504 131.516C87.136 131.561 89.32 129.692 89.32 129.692C89.32 129.692 87.248 127.689 84.672 127.6C82.04 127.511 79.856 129.425 79.856 129.425Z" fill="#CCF97D"/>
<path d="M103.544 44.697C103.544 44.697 106.736 42.205 106.456 39.3125C106.176 36.4645 102.592 34.3285 102.592 34.3285C102.592 34.3285 99.4001 36.8205 99.6801 39.713C99.9601 42.561 103.544 44.697 103.544 44.697Z" fill="#CCF97D"/>
<path d="M96.6001 45.587C98.8401 46.655 101.92 45.854 101.92 45.854C101.92 45.854 101.36 43.3175 99.1201 42.2495C96.8801 41.1815 93.8 41.9825 93.8 41.9825C93.8 41.9825 94.36 44.519 96.6001 45.587Z" fill="#CCF97D"/>
<path d="M152.096 61.518C152.096 61.518 154.504 59.6045 154.28 57.4685C154.056 55.288 151.368 53.686 151.368 53.686C151.368 53.686 148.96 55.5995 149.184 57.78C149.352 59.916 152.096 61.518 152.096 61.518Z" fill="#CCF97D"/>
<path d="M144.704 59.471C144.704 59.471 145.152 61.3845 146.832 62.23C148.512 63.031 150.864 62.408 150.864 62.408C150.864 62.408 150.416 60.4945 148.736 59.649C147.056 58.848 144.704 59.471 144.704 59.471Z" fill="#CCF97D"/>
<path d="M60.3121 101.301C63.7841 100.5 65.6321 97.2515 65.6321 97.2515C65.6321 97.2515 61.8801 95.2935 58.4081 96.0945C54.9361 96.8955 53.0881 100.144 53.0881 100.144C53.0881 100.144 56.8401 102.102 60.3121 101.301Z" fill="#CCF97D"/>
<path d="M66.024 95.516C66.024 95.516 68.04 92.3565 66.696 89.6865C65.296 87.0165 61.096 85.904 61.096 85.904C61.096 85.904 59.08 89.0635 60.424 91.7335C61.768 94.359 66.024 95.516 66.024 95.516Z" fill="#CCF97D"/>
<path d="M336.448 102.636C339.64 103.971 343.784 102.636 343.784 102.636C343.784 102.636 342.776 99.165 339.528 97.8745C336.336 96.5395 332.192 97.8745 332.192 97.8745C332.192 97.8745 333.256 101.301 336.448 102.636Z" fill="#CCF97D"/>
<path d="M175.784 117.454C175.784 117.454 175.336 114.918 173.208 113.805C171.024 112.693 167.944 113.36 167.944 113.36C167.944 113.36 168.336 115.897 170.52 117.009C172.704 118.166 175.784 117.454 175.784 117.454Z" fill="#CCF97D"/>
<path d="M181.496 114.339C182.672 112.515 181.44 110.156 181.44 110.156C181.44 110.156 178.304 110.779 177.128 112.604C175.952 114.428 177.184 116.787 177.184 116.787C177.184 116.787 180.32 116.164 181.496 114.339Z" fill="#CCF97D"/>
</svg>
