<svg width="100" height="122" viewBox="0 0 100 122" fill="none" xmlns="http://www.w3.org/2000/svg">
<path d="M0 28.3326L24.5968 37.1739L25.8065 36.1915C30.3963 29.503 34.1535 26.9774 42.7419 24.4031C57.8996 23.276 63.9007 24.878 67.3387 34.2268V37.1739C67.5606 43.6324 64.6755 46.6076 56.4516 51.2545C48.1131 55.1061 44.3945 57.9372 38.3065 63.3703C33.0821 69.6652 32.4625 74.1116 36.2903 84H63.7097V78.7607C69.2563 71.0708 73.1615 67.2957 81.8548 61.733C95.3285 52.6405 99.8398 46.1478 100 30.9522C98.2675 18.429 92.3269 13.0321 76.6129 5.08326C56.7635 -1.51655 45.6373 -1.86998 25.8065 5.08326C11.8292 10.8065 6.11788 15.864 0 28.3326Z" fill="#FFEC01" fill-opacity="0.5"/>
<ellipse cx="47.5" cy="107.5" rx="18.5" ry="14.5" fill="#FFEC01" fill-opacity="0.5"/>
</svg>
